<svg xmlns="http://www.w3.org/2000/svg" width="0px" height="0px" class="u-hidden">
  <symbol id="arrow-back" viewBox="0 0 26 26">
    <rect x="0.794922" y="12.2195" width="24" height="1" fill="#132A52"/>
    <rect x="0.999512" y="12.0099" width="12" height="1" transform="rotate(45 0.999512 12.0099)" fill="#132A52"/>
    <rect x="0.29248" y="12.717" width="12" height="1" transform="rotate(-45 0.29248 12.717)" fill="#132A52"/>
  </symbol>

  <symbol id="arrow-forward" viewBox="0 0 26 26" fill="none">
    <g clip-path="url(#clip0_220_516)">
      <rect x="0.55957" y="24.7294" width="34.9727" height="1" transform="rotate(-45 0.55957 24.7294)" fill="#132A52"/>
      <rect x="6" width="20" height="1" fill="#132A52"/>
      <rect x="25" y="20" width="20" height="1" transform="rotate(-90 25 20)" fill="#132A52"/>
    </g>
    <defs>
      <clipPath id="clip0_220_516">
        <rect width="26" height="26" fill="white"/>
      </clipPath>
    </defs>
  </symbol>

  <symbol id="close" viewBox="0 0 24 24" fill="none">
    <g clip-path="url(#clip0_193_771)">
      <path fill-rule="evenodd" clip-rule="evenodd" d="M11.9999 12.7071L20.1316 20.8388L20.8387 20.1317L12.707 12L20.8387 3.86827L20.1316 3.16117L11.9999 11.2929L3.86813 3.16117L3.16102 3.86827L11.2928 12L3.16102 20.1317L3.86813 20.8388L11.9999 12.7071Z" fill="#132A52"/>
    </g>
    <defs>
      <clipPath id="clip0_193_771">
        <rect width="24" height="24" fill="white"/>
      </clipPath>
    </defs>
  </symbol>

  <symbol id="hamburger-bar" viewBox="0 0 24 13" fill="none">
    <line y1="0.5" x2="24" y2="0.5" stroke="#132A52"/>
    <line y1="6.5" x2="24" y2="6.5" stroke="#132A52"/>
    <line y1="12.5" x2="24" y2="12.5" stroke="#132A52"/>
  </symbol>

  <symbol id="kvitny" viewBox="0 0 54 48.21" fill="#132A52">
    <g>
      <path class="st0" d="M39.67,19.35c0.02-0.18,0.13-0.32,0.23-0.46c0.63-0.84-0.7-1.26-0.19-1.73c1.43-1.24-0.32-1.63,0.25-2.3
        c0.15-0.2,0.36-0.38,0.38-0.65c0.26-1.55-1.77-1.47-1.19-2.55c0.37-0.64,0.21-2.05-0.36-2.53c-0.37-0.27-0.25-0.79-0.09-1.15
        c0.26-0.58,0.48-1.18,0.79-1.74c0.07-0.12,0.11-0.25,0.12-0.39c0.32-3.48-6.29-0.52-7.69,0.53c-3.45,2.26-6.58,5.1-8.88,8.55
        c1.43-3.35,3.74-6.31,4.58-9.91c0.35-1.26,0.28-2.69-0.35-3.85c-0.52-0.87-2.08-0.7-2.87-0.25c-0.95,0.59-1.94-0.72-3.07,0.06
        c-0.64,0.4-0.89,1.32-1.76,1.29c-1.2,0.19-1.46-1.27-2.54-0.21c-0.8,0.72-2.53-0.28-2.98,1c-0.2,0.69-0.25,1.74-1.17,1.78
        c-0.92,0.14-2.14,0.03-2.69,0.92c-0.97,2.32,1.48,4.07,3.04,5.37c2.52,1.83,4.89,4,6.03,6.98c1.37,2.83,0.95,6.09,0.64,9.11
        c-0.27,5.25-0.36,10.61,1.19,15.69c0.4,1.49,1.88,5.27,2.17,5.23c0.08-0.05,0.11-0.14,0.06-0.24c-2.97-5.7-3.51-12.29-3.2-18.61
        c0.03-2.99,0.43-6.4,2.85-8.45c1.89-1.39,4.32-2.16,6.64-1.55c1.78,0.42,4.37,1.56,6.11,2.62c1.07,0.8,2.97,1.2,3.9,0.02
        C40.27,20.97,39.67,20.29,39.67,19.35z M39.46,17.1c-0.18,0.15-0.26,0.23-0.5,0.16c-2.88-0.89-5.94-1.38-8.91-0.7
        c2.86-0.9,8.65-0.11,9.57,0.03c0.07,0.01,0.11,0.08,0.09,0.15C39.67,16.84,39.59,16.98,39.46,17.1z M39.98,16.3
        c-0.01,0.41-2.15-0.18-2.59-0.25c-2.21-0.35-4.26-0.27-6.39,0c2.66-0.83,5.51-0.91,8.27-0.69C39.67,15.39,40.04,15.9,39.98,16.3z
        M28.11,16.87c-0.37,0.17-1.14,0.49-1.15,0.47c1.71-1.34,3.84-1.88,5.95-2.26c2.14-0.5,4.34-0.58,6.51-0.37
        c0.12,0.01,0.2,0.14,0.16,0.25c-0.08,0.2-0.21,0.23-0.53,0.2C35.33,14.82,31.5,15.27,28.11,16.87z M40.06,14.13
        c-0.1,0.76-1.75,0.26-2.48,0.27c-2.26,0.04-4.46,0.43-6.65,0.91c2.69-1.21,5.68-1.69,8.62-1.47
        C39.76,13.85,40.09,13.88,40.06,14.13z M39.2,12.79c0.1,0.1,0.22,0.17,0.33,0.29c-1.65-0.11-3.31-0.16-4.94,0.19
        C35.38,13.02,38.66,12.23,39.2,12.79z M35.08,12.73c1.08-0.3,2.17-0.53,3.27-0.72c0.37-0.06,0.37-0.06,0.42,0.39
        c-1.53,0.1-3.66,0.44-5.14,0.85C34.41,12.94,34.8,12.81,35.08,12.73z M33.34,13.17c-2.6,0.99-5.1,2.4-7.26,4.17
        c3.29-3.21,8.4-5.54,12.93-6.14c-0.02,0.19-0.15,0.34-0.23,0.51c-0.06,0.11-0.18,0.09-0.27,0.11c-0.48,0.08-0.96,0.14-1.44,0.24
        C35.79,12.31,34.54,12.67,33.34,13.17z M38.52,9.46c-4.21,0.68-7.96,2.86-11.38,5.34c2.96-2.9,6.82-4.89,10.83-5.8
        c0.35-0.08,0.55,0.12,0.63,0.33C38.62,9.39,38.58,9.45,38.52,9.46z M28.34,13.03c2.9-2.13,5.99-4.01,9.67-4.57
        c0.3-0.05,0.37,0.25,0.07,0.32c-5.94,1.33-11.26,5.19-15.01,9.92c-0.01-0.01,0.11-0.2,0.13-0.22
        C24.56,16.37,26.34,14.52,28.34,13.03z M27.25,13.56c2.95-3.11,6.98-5.1,11.18-5.74c-0.09,0.16-0.08,0.42-0.31,0.44
        c-0.85,0.1-1.67,0.36-2.49,0.59C32.49,9.7,29.89,11.75,27.25,13.56z M38.58,7.55c-1.86,0.55-3.92,0.83-5.71,1.73
        c-3.95,1.89-7.41,5.51-9.83,9.13c-0.06-0.1,0.17-0.47,0.2-0.52c0.68-1.13,1.47-2.19,2.29-3.24c2.06-2.25,4.51-4.2,7.32-5.44
        c1.88-0.87,3.88-1.51,5.87-2.14C38.69,7.29,38.63,7.41,38.58,7.55z M38.89,6.78c-0.05,0.11-0.15,0.15-0.26,0.18
        c-1.05,0.29-2.08,0.61-3.11,0.97c-1.49,0.46-2.61,1.01-4.06,1.66c2.29-1.37,5.01-2.63,7.65-3.27C39.02,6.51,38.95,6.64,38.89,6.78z
        M39.29,6.02c-0.03,0.08-0.09,0.12-0.18,0.14c-1.49,0.35-2.96,0.83-4.36,1.46c-2.24,0.98-4.31,2.31-6.26,3.77
        c1.4-1.34,3.11-2.28,4.73-3.32c1.95-1.06,4.14-1.59,6.18-2.44C39.39,5.8,39.34,5.91,39.29,6.02z M39.35,5.28
        c0.06,0.14-0.01,0.2-0.13,0.25c-1.36,0.52-2.75,0.94-4.1,1.48c-1.87,0.59-3.39,1.81-5.04,2.84c2.07-1.86,4.59-3.39,7.29-4.15
        c0.57-0.17,1.16-0.31,1.72-0.52C39.21,5.13,39.29,5.15,39.35,5.28z M39.12,4.98c-0.72,0.35-1.58,0.44-2.34,0.72
        c-2.92,0.9-5.5,2.72-7.75,4.74c-3.35,2.98-6.34,6.54-7.79,10.85c0.01-1.64,1.02-3.08,1.75-4.49c2.21-3.76,5.27-7.12,9.01-9.41
        c2.08-1.21,4.3-2.17,6.68-2.58C38.85,4.76,39.01,4.77,39.12,4.98z M25.82,11.86c2.88-2.99,8.38-7.79,12.78-7.24
        c-7.81,1.59-13.43,7.28-16.94,14.22C22.05,16.09,24.04,13.89,25.82,11.86z M27.29,5.2c-0.82,2.95-2.42,5.6-3.91,8.24
        c0.26-1.15,0.94-2.19,1.48-3.23c1.09-1.84,1.7-3.96,2.62-5.84C27.41,4.64,27.35,4.92,27.29,5.2z M27.41,3.88
        c-0.93,2.31-1.78,4.66-3.04,6.82c-0.56,1.03-1.06,2.09-1.44,3.19c-0.29,0.71-0.32,1.59-0.76,2.2c1-4.75,3.82-8.89,5.25-13.49
        C27.52,3.03,27.58,3.44,27.41,3.88z M27.06,1.73c0.01-0.05-0.01-0.1,0.06-0.16c0.92,0.91-2.18,6.24-2.65,7.64
        c-1.12,2.56-2.24,5.14-2.74,7.9c-0.22,1.06-0.65,3.34-0.76,3.33c0.33-3.38,1.3-6.64,2.64-9.75C24.88,7.76,26.61,4.94,27.06,1.73z
        M26.48,1.16c0.02-0.19,0.09-0.22,0.26-0.14c0.52,0.23-0.1,1.64-0.14,2.12c-0.81,2.97-2.42,5.62-3.56,8.45
        c-0.51,1.28-1.32,4.19-1.5,4.22C22.74,10.79,25.71,6.29,26.48,1.16z M25.97,0.89c0.16-0.02,0.44,0,0.39,0.25
        c-0.14,0.8-0.31,1.55-0.55,2.31c-0.94,3.04-2.18,6.01-3.43,8.91c0.42-1.79,1.22-3.41,1.81-5.14c0.72-1.99,1.34-4.04,1.68-6.13
        C25.88,1.01,25.86,0.9,25.97,0.89z M25.11,1.18c0-0.24,0.35-0.33,0.54-0.31c0.05,0,0.09,0.05,0.08,0.11
        c-0.54,2.91-1.54,5.98-2.67,8.75C23.59,7.19,24.71,3.88,25.11,1.18z M24.42,1.61c0.03-0.39,0.05-0.44,0.44-0.56
        c0.05-0.01,0.09,0.02,0.09,0.07c-0.04,0.94-0.39,1.86-0.62,2.77c-0.29,0.89-0.42,1.82-0.76,2.68C23.74,4.9,24.34,3.3,24.42,1.61z
        M23.62,2.98c0.08-0.47,0.11-0.95,0.15-1.42c0.01-0.07,0-0.14,0.1-0.16c0.1-0.02,0.2-0.06,0.3-0.04c0.03,0,0.06,0.03,0.06,0.07
        c-0.01,1.04-0.32,2.13-0.53,3.17c-0.39,1.65-0.57,3.34-1.07,4.96C22.88,7.36,23.32,5.18,23.62,2.98z M23.21,1.32
        c0.02-0.02,0.06-0.01,0.1,0c0.34,0.08,0.33,0.08,0.29,0.42c-0.04,0.36-0.06,0.73-0.12,1.09c-0.62,3.64-0.99,7.47-1.93,10.99
        C22.11,9.66,23.1,5.54,23.21,1.32z M22.48,1.05c0.72,0.12,0.56,0.1,0.54,0.68c-0.1,2.21-0.65,4.39-0.75,6.6
        c0.1-2.38,0.27-4.57,0.01-6.89C22.26,1.17,22.22,1.01,22.48,1.05z M21.29,1.72c0.03-0.38,0.13-0.52,0.5-0.62
        c0.1-0.04,0.27-0.1,0.28,0.07c0.25,3.14,0.13,6.33-0.33,9.46c-0.02,0-0.03,0-0.05-0.01C21.61,7.66,21.16,4.69,21.29,1.72z
        M17.98,2.01c0.76,0.36,0.91,1.7,1.13,2.66c0.35,2.06,0.63,4.2,0.62,6.28c-0.62-2.87-1.22-5.72-1.86-8.58
        C17.82,2.24,17.7,1.9,17.98,2.01z M17.11,2.4c0.11-0.09,0.22-0.18,0.33-0.26c0.06-0.04,0.15-0.01,0.18,0.06
        c0.43,1.19,0.53,2.58,0.84,3.84c0.41,2.12,1.12,4.25,1.24,6.39c-0.65-3.26-1.52-6.48-2.7-9.59C16.88,2.57,16.88,2.57,17.11,2.4z
        M16.4,2.64c0.37,0.01,0.28-0.04,0.41,0.26c0.51,1.25,0.87,2.54,1.23,3.83c0.37,1.43,1,2.91,1.1,4.36
        c-0.89-2.85-1.95-5.62-2.98-8.4C16.23,2.64,16.32,2.64,16.4,2.64z M15.51,2.65c0.43-0.04,0.42-0.03,0.59,0.37
        c0.49,1.14,0.84,2.33,1.27,3.49c0.38,1.12,0.93,2.2,1.14,3.36c-1.03-2.35-1.96-4.72-3.12-7.01C15.31,2.7,15.34,2.67,15.51,2.65z
        M14.78,2.74c0.34-0.09,0.35-0.09,0.5,0.24c1.28,2.84,2.6,5.68,3.65,8.62c0.12,0.34,0.42,1.78,0.4,1.67
        c-0.54-2.38-4.11-9.54-4.72-10.41C14.55,2.78,14.72,2.76,14.78,2.74z M14.27,3.49c0.04-0.11,0.06-0.22,0.09-0.32
        c0.03-0.08,0.14-0.1,0.19-0.03c0.65,0.89,1.08,2.07,1.64,3.04c1.22,2.48,2.51,5.02,3.13,7.71c-0.87-2.34-1.93-4.56-3.11-6.75
        C15.87,6.28,14.04,4.15,14.27,3.49z M13.25,5.55c1.1,1.43,2.23,2.94,3.02,4.54c-1.27-1.66-2.5-3.34-4.01-4.86
        C12.37,5.19,12.93,5.15,13.25,5.55z M11.95,5.24c1.23,1.02,2.18,2.52,3.24,3.76c0.73,0.94,1.38,1.93,2,2.95
        c0.03,0.04,0.43,0.85,0.37,0.75c-1.09-1.84-4.01-5.22-6.13-7.34C11.61,5.27,11.79,5.28,11.95,5.24z M10.88,5.56
        c0.22-0.2,0.26-0.2,0.47,0.02c0.95,0.99,1.88,2,2.77,3.05c1.21,1.5,2.65,2.95,3.5,4.67c-1.63-2.21-3.44-4.27-5.39-6.2
        c-0.43-0.42-0.87-0.82-1.33-1.2C10.69,5.72,10.7,5.72,10.88,5.56z M16.93,13.89c-1.77-1.8-3.7-3.42-5.65-5.01
        c-0.42-0.34-0.63-0.78-0.78-1.28C12.55,9.76,15.17,11.51,16.93,13.89z M17.27,13.89c-1.99-2.41-4.52-4.27-6.72-6.47
        c-0.24-0.2-0.24-0.46-0.19-0.76c2.62,2.25,5,4.69,7.14,7.39C17.33,13.97,17.34,13.97,17.27,13.89z M16.86,12.97
        c-1.9-2.26-3.97-4.4-6.25-6.3c-0.28-0.23-0.25-0.37-0.11-0.7c0.16-0.39,1.45,1.15,1.67,1.3c2.17,2.22,4.35,4.52,5.94,7.19
        C17.71,13.95,17.27,13.47,16.86,12.97z M13.16,5.22c-0.03-0.03-0.02-0.09,0.02-0.11c0.17-0.1,0.34-0.15,0.48-0.26
        c0.08-0.07,0.12,0.04,0.16,0.09c2.16,3.36,4.27,6.87,5.46,10.68C17.62,11.94,15.79,8.36,13.16,5.22z M19.89,16.77
        c-1.06-3.68-2.92-7.07-4.9-10.32c-0.32-0.54-0.69-1.05-1.05-1.58c-0.16-0.23,0.03-0.41,0.15-0.64c0.03-0.06,0.13-0.07,0.16,0
        C16.62,8.14,19.01,12.25,19.89,16.77z M18.82,2.72c-0.02-0.09,0.05-0.18,0.14-0.18c0.17,0.01,0.32,0.05,0.46,0.05
        c0.11,0,0.11,0.09,0.13,0.17c0.12,0.62,0.19,1.24,0.25,1.87c0.31,3.49,0.65,7,0.57,10.51C20.28,14.99,19.9,6.73,18.82,2.72z
        M20.69,17.71c-0.12-4.32-0.26-8.62-0.71-12.92c-0.05-0.66-0.13-1.31-0.25-1.96c-0.11-0.31,0.2-0.31,0.44-0.37
        c0.06-0.02,0.12,0.02,0.13,0.08c0.42,2.45,0.37,4.96,0.5,7.44C20.79,12.55,20.93,15.18,20.69,17.71z M21.07,15.14
        c-0.03,0.14-0.07,0.42-0.09,0.42c0.09-3.47,0-6.94-0.22-10.41c-0.07-0.93-0.21-1.85-0.25-2.79c0-0.04-0.02-0.08,0.01-0.11
        c0.22-0.16,0.34-0.42,0.54-0.59C21.03,6.1,21.93,10.69,21.07,15.14z M21.99,21.19c-0.44,0.61-0.64,1.37-1.11,1.96
        c1.71-6.14,10.98-12.21,16.88-13.38c0.26-0.05,1.03-0.23,1.12-0.03c0.18,0.38-0.3,0.41-0.57,0.49
        C31.65,11.36,25.52,15.42,21.99,21.19z M23.14,20.04c-0.04,0.04-0.06,0.11-0.14,0.1c3.45-5.36,9.58-8.68,15.76-9.91
        c0.1-0.02,0.2,0.04,0.23,0.14c0.16,0.51,0.14,0.65-0.52,0.75c-0.85,0.17-1.7,0.32-2.53,0.55C30.94,13.11,26.43,16.01,23.14,20.04z
        M26.2,17.51c4.24-3.37,7.99-4.69,13.43-4.27c0.24,0,0.41,0.25,0.35,0.45c-0.31,0.04-3.58-0.17-4.57,0.12
        c-3.55,0.63-7.06,1.99-9.85,4.33C25.71,17.87,25.96,17.71,26.2,17.51z M26.27,18.37c-0.09,0.04-0.18,0.1-0.35,0.11
        c3.73-2.4,8.36-2.17,12.57-1.17c0.53,0.13,0.97,0.31,1.2,0.82c0.18,0.25,0.05,0.86-0.3,0.52C35.47,16.29,30.37,16.59,26.27,18.37z
        M39.47,19.07c-0.12,0.22,0.01,0.51-0.02,0.76c-1.77-1.14-3.61-1.85-5.72-2.09c-2.12-0.45-4.29-0.09-6.34,0.43
        c3.21-1.17,6.9-1.4,10.15-0.27C37.83,18.07,39.76,18.77,39.47,19.07z M37.41,22.36c-1.4-0.42-2.86-1.62-4.49-2.21
        c-0.34-0.13-2-0.82-2.16-0.86c2.74,0.18,4.96,1.64,7.23,3.05C37.75,22.43,37.57,22.4,37.41,22.36z M38.99,22.14
        c-1.14,0.56-2.56-1.19-3.62-1.63c-1.14-0.62-2.37-1.09-3.66-1.3c-0.81-0.15-1.66-0.02-2.42-0.35c1.82-0.29,3.69,0.11,5.42,0.73
        c1.59,0.64,2.96,1.64,4.53,2.34C39.2,22.06,39.08,22.1,38.99,22.14z M39.4,21.77c-0.06,0.07-0.13,0-0.19-0.03
        c-1.35-0.65-2.58-1.51-3.95-2.11c-2.55-1.21-5.41-1.11-8.13-0.8c1.89-0.7,4.09-0.69,6.09-0.43c2.27,0.31,4.16,1.63,6.13,2.69
        C39.71,21.15,39.59,21.57,39.4,21.77z M39.63,21.02c-4.55-2.67-6.49-3.52-11.84-2.71c2.86-0.89,5.93-0.66,8.76,0.26
        c1.01,0.31,1.88,0.89,2.78,1.43C39.67,20.2,39.71,20.66,39.63,21.02z"/>
    </g>
  </symbol>

  <symbol id="logo" viewBox="0 0 54 48.21" fill="currentColor">
    <g>
      <path class="st0" d="M39.67,19.35c0.02-0.18,0.13-0.32,0.23-0.46c0.63-0.84-0.7-1.26-0.19-1.73c1.43-1.24-0.32-1.63,0.25-2.3
        c0.15-0.2,0.36-0.38,0.38-0.65c0.26-1.55-1.77-1.47-1.19-2.55c0.37-0.64,0.21-2.05-0.36-2.53c-0.37-0.27-0.25-0.79-0.09-1.15
        c0.26-0.58,0.48-1.18,0.79-1.74c0.07-0.12,0.11-0.25,0.12-0.39c0.32-3.48-6.29-0.52-7.69,0.53c-3.45,2.26-6.58,5.1-8.88,8.55
        c1.43-3.35,3.74-6.31,4.58-9.91c0.35-1.26,0.28-2.69-0.35-3.85c-0.52-0.87-2.08-0.7-2.87-0.25c-0.95,0.59-1.94-0.72-3.07,0.06
        c-0.64,0.4-0.89,1.32-1.76,1.29c-1.2,0.19-1.46-1.27-2.54-0.21c-0.8,0.72-2.53-0.28-2.98,1c-0.2,0.69-0.25,1.74-1.17,1.78
        c-0.92,0.14-2.14,0.03-2.69,0.92c-0.97,2.32,1.48,4.07,3.04,5.37c2.52,1.83,4.89,4,6.03,6.98c1.37,2.83,0.95,6.09,0.64,9.11
        c-0.27,5.25-0.36,10.61,1.19,15.69c0.4,1.49,1.88,5.27,2.17,5.23c0.08-0.05,0.11-0.14,0.06-0.24c-2.97-5.7-3.51-12.29-3.2-18.61
        c0.03-2.99,0.43-6.4,2.85-8.45c1.89-1.39,4.32-2.16,6.64-1.55c1.78,0.42,4.37,1.56,6.11,2.62c1.07,0.8,2.97,1.2,3.9,0.02
        C40.27,20.97,39.67,20.29,39.67,19.35z M39.46,17.1c-0.18,0.15-0.26,0.23-0.5,0.16c-2.88-0.89-5.94-1.38-8.91-0.7
        c2.86-0.9,8.65-0.11,9.57,0.03c0.07,0.01,0.11,0.08,0.09,0.15C39.67,16.84,39.59,16.98,39.46,17.1z M39.98,16.3
        c-0.01,0.41-2.15-0.18-2.59-0.25c-2.21-0.35-4.26-0.27-6.39,0c2.66-0.83,5.51-0.91,8.27-0.69C39.67,15.39,40.04,15.9,39.98,16.3z
        M28.11,16.87c-0.37,0.17-1.14,0.49-1.15,0.47c1.71-1.34,3.84-1.88,5.95-2.26c2.14-0.5,4.34-0.58,6.51-0.37
        c0.12,0.01,0.2,0.14,0.16,0.25c-0.08,0.2-0.21,0.23-0.53,0.2C35.33,14.82,31.5,15.27,28.11,16.87z M40.06,14.13
        c-0.1,0.76-1.75,0.26-2.48,0.27c-2.26,0.04-4.46,0.43-6.65,0.91c2.69-1.21,5.68-1.69,8.62-1.47
        C39.76,13.85,40.09,13.88,40.06,14.13z M39.2,12.79c0.1,0.1,0.22,0.17,0.33,0.29c-1.65-0.11-3.31-0.16-4.94,0.19
        C35.38,13.02,38.66,12.23,39.2,12.79z M35.08,12.73c1.08-0.3,2.17-0.53,3.27-0.72c0.37-0.06,0.37-0.06,0.42,0.39
        c-1.53,0.1-3.66,0.44-5.14,0.85C34.41,12.94,34.8,12.81,35.08,12.73z M33.34,13.17c-2.6,0.99-5.1,2.4-7.26,4.17
        c3.29-3.21,8.4-5.54,12.93-6.14c-0.02,0.19-0.15,0.34-0.23,0.51c-0.06,0.11-0.18,0.09-0.27,0.11c-0.48,0.08-0.96,0.14-1.44,0.24
        C35.79,12.31,34.54,12.67,33.34,13.17z M38.52,9.46c-4.21,0.68-7.96,2.86-11.38,5.34c2.96-2.9,6.82-4.89,10.83-5.8
        c0.35-0.08,0.55,0.12,0.63,0.33C38.62,9.39,38.58,9.45,38.52,9.46z M28.34,13.03c2.9-2.13,5.99-4.01,9.67-4.57
        c0.3-0.05,0.37,0.25,0.07,0.32c-5.94,1.33-11.26,5.19-15.01,9.92c-0.01-0.01,0.11-0.2,0.13-0.22
        C24.56,16.37,26.34,14.52,28.34,13.03z M27.25,13.56c2.95-3.11,6.98-5.1,11.18-5.74c-0.09,0.16-0.08,0.42-0.31,0.44
        c-0.85,0.1-1.67,0.36-2.49,0.59C32.49,9.7,29.89,11.75,27.25,13.56z M38.58,7.55c-1.86,0.55-3.92,0.83-5.71,1.73
        c-3.95,1.89-7.41,5.51-9.83,9.13c-0.06-0.1,0.17-0.47,0.2-0.52c0.68-1.13,1.47-2.19,2.29-3.24c2.06-2.25,4.51-4.2,7.32-5.44
        c1.88-0.87,3.88-1.51,5.87-2.14C38.69,7.29,38.63,7.41,38.58,7.55z M38.89,6.78c-0.05,0.11-0.15,0.15-0.26,0.18
        c-1.05,0.29-2.08,0.61-3.11,0.97c-1.49,0.46-2.61,1.01-4.06,1.66c2.29-1.37,5.01-2.63,7.65-3.27C39.02,6.51,38.95,6.64,38.89,6.78z
        M39.29,6.02c-0.03,0.08-0.09,0.12-0.18,0.14c-1.49,0.35-2.96,0.83-4.36,1.46c-2.24,0.98-4.31,2.31-6.26,3.77
        c1.4-1.34,3.11-2.28,4.73-3.32c1.95-1.06,4.14-1.59,6.18-2.44C39.39,5.8,39.34,5.91,39.29,6.02z M39.35,5.28
        c0.06,0.14-0.01,0.2-0.13,0.25c-1.36,0.52-2.75,0.94-4.1,1.48c-1.87,0.59-3.39,1.81-5.04,2.84c2.07-1.86,4.59-3.39,7.29-4.15
        c0.57-0.17,1.16-0.31,1.72-0.52C39.21,5.13,39.29,5.15,39.35,5.28z M39.12,4.98c-0.72,0.35-1.58,0.44-2.34,0.72
        c-2.92,0.9-5.5,2.72-7.75,4.74c-3.35,2.98-6.34,6.54-7.79,10.85c0.01-1.64,1.02-3.08,1.75-4.49c2.21-3.76,5.27-7.12,9.01-9.41
        c2.08-1.21,4.3-2.17,6.68-2.58C38.85,4.76,39.01,4.77,39.12,4.98z M25.82,11.86c2.88-2.99,8.38-7.79,12.78-7.24
        c-7.81,1.59-13.43,7.28-16.94,14.22C22.05,16.09,24.04,13.89,25.82,11.86z M27.29,5.2c-0.82,2.95-2.42,5.6-3.91,8.24
        c0.26-1.15,0.94-2.19,1.48-3.23c1.09-1.84,1.7-3.96,2.62-5.84C27.41,4.64,27.35,4.92,27.29,5.2z M27.41,3.88
        c-0.93,2.31-1.78,4.66-3.04,6.82c-0.56,1.03-1.06,2.09-1.44,3.19c-0.29,0.71-0.32,1.59-0.76,2.2c1-4.75,3.82-8.89,5.25-13.49
        C27.52,3.03,27.58,3.44,27.41,3.88z M27.06,1.73c0.01-0.05-0.01-0.1,0.06-0.16c0.92,0.91-2.18,6.24-2.65,7.64
        c-1.12,2.56-2.24,5.14-2.74,7.9c-0.22,1.06-0.65,3.34-0.76,3.33c0.33-3.38,1.3-6.64,2.64-9.75C24.88,7.76,26.61,4.94,27.06,1.73z
        M26.48,1.16c0.02-0.19,0.09-0.22,0.26-0.14c0.52,0.23-0.1,1.64-0.14,2.12c-0.81,2.97-2.42,5.62-3.56,8.45
        c-0.51,1.28-1.32,4.19-1.5,4.22C22.74,10.79,25.71,6.29,26.48,1.16z M25.97,0.89c0.16-0.02,0.44,0,0.39,0.25
        c-0.14,0.8-0.31,1.55-0.55,2.31c-0.94,3.04-2.18,6.01-3.43,8.91c0.42-1.79,1.22-3.41,1.81-5.14c0.72-1.99,1.34-4.04,1.68-6.13
        C25.88,1.01,25.86,0.9,25.97,0.89z M25.11,1.18c0-0.24,0.35-0.33,0.54-0.31c0.05,0,0.09,0.05,0.08,0.11
        c-0.54,2.91-1.54,5.98-2.67,8.75C23.59,7.19,24.71,3.88,25.11,1.18z M24.42,1.61c0.03-0.39,0.05-0.44,0.44-0.56
        c0.05-0.01,0.09,0.02,0.09,0.07c-0.04,0.94-0.39,1.86-0.62,2.77c-0.29,0.89-0.42,1.82-0.76,2.68C23.74,4.9,24.34,3.3,24.42,1.61z
        M23.62,2.98c0.08-0.47,0.11-0.95,0.15-1.42c0.01-0.07,0-0.14,0.1-0.16c0.1-0.02,0.2-0.06,0.3-0.04c0.03,0,0.06,0.03,0.06,0.07
        c-0.01,1.04-0.32,2.13-0.53,3.17c-0.39,1.65-0.57,3.34-1.07,4.96C22.88,7.36,23.32,5.18,23.62,2.98z M23.21,1.32
        c0.02-0.02,0.06-0.01,0.1,0c0.34,0.08,0.33,0.08,0.29,0.42c-0.04,0.36-0.06,0.73-0.12,1.09c-0.62,3.64-0.99,7.47-1.93,10.99
        C22.11,9.66,23.1,5.54,23.21,1.32z M22.48,1.05c0.72,0.12,0.56,0.1,0.54,0.68c-0.1,2.21-0.65,4.39-0.75,6.6
        c0.1-2.38,0.27-4.57,0.01-6.89C22.26,1.17,22.22,1.01,22.48,1.05z M21.29,1.72c0.03-0.38,0.13-0.52,0.5-0.62
        c0.1-0.04,0.27-0.1,0.28,0.07c0.25,3.14,0.13,6.33-0.33,9.46c-0.02,0-0.03,0-0.05-0.01C21.61,7.66,21.16,4.69,21.29,1.72z
        M17.98,2.01c0.76,0.36,0.91,1.7,1.13,2.66c0.35,2.06,0.63,4.2,0.62,6.28c-0.62-2.87-1.22-5.72-1.86-8.58
        C17.82,2.24,17.7,1.9,17.98,2.01z M17.11,2.4c0.11-0.09,0.22-0.18,0.33-0.26c0.06-0.04,0.15-0.01,0.18,0.06
        c0.43,1.19,0.53,2.58,0.84,3.84c0.41,2.12,1.12,4.25,1.24,6.39c-0.65-3.26-1.52-6.48-2.7-9.59C16.88,2.57,16.88,2.57,17.11,2.4z
        M16.4,2.64c0.37,0.01,0.28-0.04,0.41,0.26c0.51,1.25,0.87,2.54,1.23,3.83c0.37,1.43,1,2.91,1.1,4.36
        c-0.89-2.85-1.95-5.62-2.98-8.4C16.23,2.64,16.32,2.64,16.4,2.64z M15.51,2.65c0.43-0.04,0.42-0.03,0.59,0.37
        c0.49,1.14,0.84,2.33,1.27,3.49c0.38,1.12,0.93,2.2,1.14,3.36c-1.03-2.35-1.96-4.72-3.12-7.01C15.31,2.7,15.34,2.67,15.51,2.65z
        M14.78,2.74c0.34-0.09,0.35-0.09,0.5,0.24c1.28,2.84,2.6,5.68,3.65,8.62c0.12,0.34,0.42,1.78,0.4,1.67
        c-0.54-2.38-4.11-9.54-4.72-10.41C14.55,2.78,14.72,2.76,14.78,2.74z M14.27,3.49c0.04-0.11,0.06-0.22,0.09-0.32
        c0.03-0.08,0.14-0.1,0.19-0.03c0.65,0.89,1.08,2.07,1.64,3.04c1.22,2.48,2.51,5.02,3.13,7.71c-0.87-2.34-1.93-4.56-3.11-6.75
        C15.87,6.28,14.04,4.15,14.27,3.49z M13.25,5.55c1.1,1.43,2.23,2.94,3.02,4.54c-1.27-1.66-2.5-3.34-4.01-4.86
        C12.37,5.19,12.93,5.15,13.25,5.55z M11.95,5.24c1.23,1.02,2.18,2.52,3.24,3.76c0.73,0.94,1.38,1.93,2,2.95
        c0.03,0.04,0.43,0.85,0.37,0.75c-1.09-1.84-4.01-5.22-6.13-7.34C11.61,5.27,11.79,5.28,11.95,5.24z M10.88,5.56
        c0.22-0.2,0.26-0.2,0.47,0.02c0.95,0.99,1.88,2,2.77,3.05c1.21,1.5,2.65,2.95,3.5,4.67c-1.63-2.21-3.44-4.27-5.39-6.2
        c-0.43-0.42-0.87-0.82-1.33-1.2C10.69,5.72,10.7,5.72,10.88,5.56z M16.93,13.89c-1.77-1.8-3.7-3.42-5.65-5.01
        c-0.42-0.34-0.63-0.78-0.78-1.28C12.55,9.76,15.17,11.51,16.93,13.89z M17.27,13.89c-1.99-2.41-4.52-4.27-6.72-6.47
        c-0.24-0.2-0.24-0.46-0.19-0.76c2.62,2.25,5,4.69,7.14,7.39C17.33,13.97,17.34,13.97,17.27,13.89z M16.86,12.97
        c-1.9-2.26-3.97-4.4-6.25-6.3c-0.28-0.23-0.25-0.37-0.11-0.7c0.16-0.39,1.45,1.15,1.67,1.3c2.17,2.22,4.35,4.52,5.94,7.19
        C17.71,13.95,17.27,13.47,16.86,12.97z M13.16,5.22c-0.03-0.03-0.02-0.09,0.02-0.11c0.17-0.1,0.34-0.15,0.48-0.26
        c0.08-0.07,0.12,0.04,0.16,0.09c2.16,3.36,4.27,6.87,5.46,10.68C17.62,11.94,15.79,8.36,13.16,5.22z M19.89,16.77
        c-1.06-3.68-2.92-7.07-4.9-10.32c-0.32-0.54-0.69-1.05-1.05-1.58c-0.16-0.23,0.03-0.41,0.15-0.64c0.03-0.06,0.13-0.07,0.16,0
        C16.62,8.14,19.01,12.25,19.89,16.77z M18.82,2.72c-0.02-0.09,0.05-0.18,0.14-0.18c0.17,0.01,0.32,0.05,0.46,0.05
        c0.11,0,0.11,0.09,0.13,0.17c0.12,0.62,0.19,1.24,0.25,1.87c0.31,3.49,0.65,7,0.57,10.51C20.28,14.99,19.9,6.73,18.82,2.72z
        M20.69,17.71c-0.12-4.32-0.26-8.62-0.71-12.92c-0.05-0.66-0.13-1.31-0.25-1.96c-0.11-0.31,0.2-0.31,0.44-0.37
        c0.06-0.02,0.12,0.02,0.13,0.08c0.42,2.45,0.37,4.96,0.5,7.44C20.79,12.55,20.93,15.18,20.69,17.71z M21.07,15.14
        c-0.03,0.14-0.07,0.42-0.09,0.42c0.09-3.47,0-6.94-0.22-10.41c-0.07-0.93-0.21-1.85-0.25-2.79c0-0.04-0.02-0.08,0.01-0.11
        c0.22-0.16,0.34-0.42,0.54-0.59C21.03,6.1,21.93,10.69,21.07,15.14z M21.99,21.19c-0.44,0.61-0.64,1.37-1.11,1.96
        c1.71-6.14,10.98-12.21,16.88-13.38c0.26-0.05,1.03-0.23,1.12-0.03c0.18,0.38-0.3,0.41-0.57,0.49
        C31.65,11.36,25.52,15.42,21.99,21.19z M23.14,20.04c-0.04,0.04-0.06,0.11-0.14,0.1c3.45-5.36,9.58-8.68,15.76-9.91
        c0.1-0.02,0.2,0.04,0.23,0.14c0.16,0.51,0.14,0.65-0.52,0.75c-0.85,0.17-1.7,0.32-2.53,0.55C30.94,13.11,26.43,16.01,23.14,20.04z
        M26.2,17.51c4.24-3.37,7.99-4.69,13.43-4.27c0.24,0,0.41,0.25,0.35,0.45c-0.31,0.04-3.58-0.17-4.57,0.12
        c-3.55,0.63-7.06,1.99-9.85,4.33C25.71,17.87,25.96,17.71,26.2,17.51z M26.27,18.37c-0.09,0.04-0.18,0.1-0.35,0.11
        c3.73-2.4,8.36-2.17,12.57-1.17c0.53,0.13,0.97,0.31,1.2,0.82c0.18,0.25,0.05,0.86-0.3,0.52C35.47,16.29,30.37,16.59,26.27,18.37z
        M39.47,19.07c-0.12,0.22,0.01,0.51-0.02,0.76c-1.77-1.14-3.61-1.85-5.72-2.09c-2.12-0.45-4.29-0.09-6.34,0.43
        c3.21-1.17,6.9-1.4,10.15-0.27C37.83,18.07,39.76,18.77,39.47,19.07z M37.41,22.36c-1.4-0.42-2.86-1.62-4.49-2.21
        c-0.34-0.13-2-0.82-2.16-0.86c2.74,0.18,4.96,1.64,7.23,3.05C37.75,22.43,37.57,22.4,37.41,22.36z M38.99,22.14
        c-1.14,0.56-2.56-1.19-3.62-1.63c-1.14-0.62-2.37-1.09-3.66-1.3c-0.81-0.15-1.66-0.02-2.42-0.35c1.82-0.29,3.69,0.11,5.42,0.73
        c1.59,0.64,2.96,1.64,4.53,2.34C39.2,22.06,39.08,22.1,38.99,22.14z M39.4,21.77c-0.06,0.07-0.13,0-0.19-0.03
        c-1.35-0.65-2.58-1.51-3.95-2.11c-2.55-1.21-5.41-1.11-8.13-0.8c1.89-0.7,4.09-0.69,6.09-0.43c2.27,0.31,4.16,1.63,6.13,2.69
        C39.71,21.15,39.59,21.57,39.4,21.77z M39.63,21.02c-4.55-2.67-6.49-3.52-11.84-2.71c2.86-0.89,5.93-0.66,8.76,0.26
        c1.01,0.31,1.88,0.89,2.78,1.43C39.67,20.2,39.71,20.66,39.63,21.02z"/>
      <g>
        <path class="st0" d="M0.93,48.21H0.09V23.68h0.84V48.21z M2.06,35.4v-0.21l4.95-11.51h0.32L2.62,34.6l5.65,13.62H7.36L2.06,35.4z"
          />
        <path class="st0" d="M14.1,46.49h0.07l3.54-22.81h0.28l-3.83,24.53h-0.63L8.97,23.68h0.84L14.1,46.49z"/>
        <path class="st0" d="M32.56,23.89h-3.79v24.32h-0.84V23.89H24.1v-0.21h8.46V23.89z"/>
        <path class="st0" d="M34.66,23.68h0.21v24.53h-0.21V23.68z M42.87,46.46h0.11V23.68h0.21v24.53h-0.63l-7.62-24.53h0.88
          L42.87,46.46z"/>
        <path class="st0" d="M49.79,37.51h0.07l0.35-1.37l3.51-12.46H54l-4.07,14.57v9.97h-0.84V38.18l-3.79-14.5h0.91L49.79,37.51z"/>
      </g>
    </g>
  </symbol>

  <symbol id="tiktok" viewBox="0 0 50 50" fill="currentColor">
    <g id="surface1">
      <path style=" stroke:none;fill-rule:nonzero;fill-opacity:1;" d="M 40.253906 11.585938 C 39.9375 11.425781 39.628906 11.246094 39.332031 11.050781 C 38.460938 10.476562 37.667969 9.800781 36.960938 9.039062 C 35.191406 7.015625 34.53125 4.960938 34.289062 3.527344 L 34.296875 3.527344 C 34.097656 2.335938 34.179688 1.5625 34.191406 1.5625 L 26.140625 1.5625 L 26.140625 32.695312 C 26.140625 33.109375 26.140625 33.523438 26.125 33.933594 C 26.125 33.984375 26.117188 34.03125 26.117188 34.085938 C 26.117188 34.109375 26.117188 34.132812 26.109375 34.152344 C 26.109375 34.160156 26.109375 34.164062 26.109375 34.171875 C 25.9375 36.441406 24.648438 38.472656 22.671875 39.597656 C 21.65625 40.175781 20.507812 40.476562 19.339844 40.476562 C 15.589844 40.476562 12.550781 37.417969 12.550781 33.640625 C 12.550781 29.863281 15.589844 26.804688 19.339844 26.804688 C 20.050781 26.804688 20.757812 26.914062 21.429688 27.136719 L 21.441406 18.9375 C 17.296875 18.402344 13.121094 19.625 9.917969 22.308594 C 8.53125 23.515625 7.363281 24.953125 6.46875 26.558594 C 6.132812 27.144531 4.847656 29.5 4.695312 33.320312 C 4.59375 35.492188 5.246094 37.738281 5.558594 38.667969 L 5.558594 38.6875 C 5.753906 39.234375 6.507812 41.097656 7.742188 42.671875 C 8.738281 43.933594 9.914062 45.042969 11.230469 45.960938 L 11.230469 45.945312 L 11.25 45.960938 C 15.148438 48.609375 19.46875 48.4375 19.46875 48.4375 C 20.21875 48.40625 22.722656 48.4375 25.570312 47.089844 C 28.726562 45.59375 30.523438 43.367188 30.523438 43.367188 C 31.667969 42.035156 32.582031 40.519531 33.21875 38.882812 C 33.949219 36.964844 34.191406 34.667969 34.191406 33.75 L 34.191406 17.234375 C 34.289062 17.292969 35.589844 18.15625 35.589844 18.15625 C 35.589844 18.15625 37.464844 19.355469 40.390625 20.136719 C 42.484375 20.695312 45.3125 20.8125 45.3125 20.8125 L 45.3125 12.820312 C 44.320312 12.925781 42.3125 12.613281 40.253906 11.585938 Z M 40.253906 11.585938 "/>
    </g>
  </symbol>

  <symbol id="pinterest" viewBox="0 0 50 50" fill="currentColor">
    <g id="surface1">
      <path style=" stroke:none;fill-rule:nonzero;fill-opacity:1;" d="M 21.546875 33.054688 C 20.238281 39.925781 18.636719 46.511719 13.898438 49.953125 C 12.433594 39.566406 16.042969 31.769531 17.722656 23.488281 C 14.859375 18.675781 18.066406 8.988281 24.097656 11.375 C 31.519531 14.308594 17.671875 29.273438 26.964844 31.140625 C 36.675781 33.09375 40.636719 14.296875 34.617188 8.1875 C 25.921875 -0.636719 9.300781 7.984375 11.34375 20.621094 C 11.84375 23.710938 15.03125 24.648438 12.621094 28.910156 C 7.054688 27.675781 5.394531 23.285156 5.605469 17.433594 C 5.953125 7.851562 14.214844 1.144531 22.503906 0.214844 C 32.984375 -0.957031 42.824219 4.0625 44.183594 13.925781 C 45.714844 25.054688 39.453125 37.109375 28.242188 36.242188 C 25.203125 36.007812 23.929688 34.5 21.546875 33.054688 Z M 21.546875 33.054688 "/>
    </g>
  </symbol>

  <symbol id="facebook" viewBox="0 0 50 50" fill="currentColor">
    <g id="surface1">
      <path style=" stroke:none;fill-rule:evenodd;fill-opacity:1;" d="M 29.554688 50 L 29.554688 27.5 L 36.382812 27.5 L 37.5 17.5 L 29.554688 17.5 L 29.554688 12.628906 C 29.554688 10.054688 29.617188 7.5 33.21875 7.5 L 36.863281 7.5 L 36.863281 0.351562 C 36.863281 0.242188 33.730469 0 30.5625 0 C 23.949219 0 19.808594 4.140625 19.808594 11.75 L 19.808594 17.5 L 12.5 17.5 L 12.5 27.5 L 19.808594 27.5 L 19.808594 50 Z M 29.554688 50 "/>
    </g>
  </symbol>
</svg>

